# xmcd CD database file
#
# Track frame offsets:
#	150
#	14467
#	26610
#	44545
#	59725
#	78242
#	94047
#	109052
#	122992
#	138805
#
# Disc length: 2145 seconds
#
# Revision: 3
# Processed by: cddbd v1.4PL0 Copyright (c) Steve Scherf et al.
# Submitted via: CDex 1.50
#
DISCID=83085f0a
DTITLE=Dan Seals - Walking the Wire
DYEAR=1992
DGENRE=Country
TTITLE0=Mason Dixon Line
TTITLE1=When Love Comes Around the Bend
TTITLE2=Someone Else's Dance
TTITLE3=Sneaky Moon
TTITLE4=A Good Rain
TTITLE5=Sweet Little Shoe
TTITLE6=Slower
TTITLE7=Maybe That's Why
TTITLE8=The Wire
TTITLE9=We Are One
EXTD=YEAR: 1992
EXTT0=
EXTT1=
EXTT2=
EXTT3=
EXTT4=
EXTT5=
EXTT6=
EXTT7=
EXTT8=
EXTT9=
PLAYORDER=
